<svg xmlns="http://www.w3.org/2000/svg" viewBox="0 0 168 75.445"><defs><style>.a{fill:#fff;}</style></defs><g transform="translate(-92.4 -328.8)"><g transform="translate(92.4 328.8)"><path class="a" d="M269.845,406.475V388.3h-3.766v18.257c0,5.444-4.462,8.187-13.386,8.187-8.965,0-13.427-2.784-13.427-8.351V388.341H235.5v18.094q0,11.482,17.193,11.5c4.912,0,8.719-.655,11.462-1.965,3.766-1.883,5.69-5.035,5.69-9.5" transform="translate(-176.921 -363.943)"/><path class="a" d="M364.668,417.451v-29.31H360.9v24.316q-3.991-3.561-13.918-12.035-9.026-7.737-14.082-12.322h-3.6v29.31h3.766V392.93l27.959,24.48h3.643Z" transform="translate(-232.323 -363.825)"/><path class="a" d="M458.119,371.906a1.448,1.448,0,0,0,.164-2.415,2,2,0,0,0-2.579-.041l-4.667,2.62a1.443,1.443,0,0,0-.737,1.228,1.642,1.642,0,0,0,.573,1.187,2.1,2.1,0,0,0,1.392.532,1.9,1.9,0,0,0,1.269-.491Z" transform="translate(-303.791 -352.544)"/><path class="a" d="M456.529,416.8v-3.234h-27.3V402.883h23.906V399.69H429.225v-9.415H456.2V387H425.5v29.8Z" transform="translate(-289.143 -363.175)"/><rect class="a" width="6.263" height="54.281"/><path class="a" d="M183.985,340.671,201.1,328.8H188.447l-9.947,6.959A23.261,23.261,0,0,1,183.985,340.671Z" transform="translate(-143.254 -328.8)"/><path class="a" d="M188.571,427.4a24.5,24.5,0,0,1-4.871,5.4l9.62,8.515h10.971Z" transform="translate(-146.326 -387.037)"/></g><g transform="translate(92.605 391.759)"><path class="a" d="M102.561,494.4a6.9,6.9,0,0,1-3.357.737H92.9V482.9h6.509a5.378,5.378,0,0,1,3.029.778,2.905,2.905,0,0,1,1.474,2.62,2.754,2.754,0,0,1-1.433,2.374,2.988,2.988,0,0,1,1.842,2.906A3.02,3.02,0,0,1,102.561,494.4Zm-1.146-9.538a4.154,4.154,0,0,0-2.006-.45H94.66v3.52h4.708a4.326,4.326,0,0,0,2.047-.45,1.394,1.394,0,0,0,.778-1.31A1.435,1.435,0,0,0,101.415,484.865Zm.287,5.158a4.991,4.991,0,0,0-2.374-.491H94.66v4.012h4.749a4.478,4.478,0,0,0,2.251-.491,1.629,1.629,0,0,0,.942-1.515A1.692,1.692,0,0,0,101.7,490.023Z" transform="translate(-92.9 -482.777)"/><path class="a" d="M184.515,489a2.894,2.894,0,0,1,1.392,2.661v3.316h-1.719v-3.275c0-1.269-.982-1.883-2.947-1.883h-4.421v5.117H175.1V482.7h6.3c3.152,0,4.708,1.146,4.708,3.4A3.086,3.086,0,0,1,184.515,489Zm-3.07-4.667h-4.626v3.971h4.339a4.54,4.54,0,0,0,2.292-.491,1.777,1.777,0,0,0,.942-1.6C184.392,484.951,183.41,484.337,181.445,484.337Z" transform="translate(-141.451 -482.659)"/><path class="a" d="M265.144,495.14l-1.76-3.6h-6.058l-1.76,3.6H253.6l6.14-12.24h1.351l5.936,12.24Zm-4.708-9.743-2.251,4.5h4.462Z" transform="translate(-187.816 -482.777)"/><path class="a" d="M343.518,495.085a8.726,8.726,0,0,1-4.012-.819,3.65,3.65,0,0,1-2.006-3.4v-.778h1.719v.737c0,1.8,1.433,2.7,4.257,2.7a6.405,6.405,0,0,0,2.538-.45,1.57,1.57,0,0,0,1.146-1.474,1.3,1.3,0,0,0-.368-1.023,3.357,3.357,0,0,0-1.269-.573c-.368-.082-1.228-.287-2.538-.532a15.234,15.234,0,0,1-3.234-.9,2.819,2.819,0,0,1-1.842-2.661c0-2.211,1.76-3.316,5.24-3.316,3.643,0,5.485,1.474,5.526,4.462h-1.719c-.082-1.269-.45-2.088-1.105-2.415a5.847,5.847,0,0,0-2.7-.45c-2.333,0-3.52.573-3.52,1.76a1.28,1.28,0,0,0,.819,1.228,11.61,11.61,0,0,0,2.415.614,14.492,14.492,0,0,1,4.5,1.228,2.877,2.877,0,0,1,1.556,2.661A2.944,2.944,0,0,1,347,494.43,8.645,8.645,0,0,1,343.518,495.085Z" transform="translate(-237.371 -482.6)"/><path class="a" d="M420.3,495.14V482.9h1.719v12.24Z" transform="translate(-286.277 -482.777)"/><path class="a" d="M479.7,495.14V482.9h1.719v10.684h7.737v1.556Z" transform="translate(-321.361 -482.777)"/></g><path class="a" d="M126.259,341.2a21.989,21.989,0,0,0-13.959,4.953v17.48c.491-.819,1.023-1.678,1.515-2.5.45-.737.9-1.433,1.351-2.17a2.762,2.762,0,0,0,.327-.982,7.176,7.176,0,0,1,1.556-3.52,15.21,15.21,0,0,1,5.322-3.684,6.615,6.615,0,0,1,4.135-.532,22.072,22.072,0,0,1,2.456.655,5.58,5.58,0,0,0,2.947.2c.409-.082.819-.2,1.269-.287.2-.041.45-.123.7-.164l1.924-.45-.041-.041-.246-.246.327-.123.614-.246c.45-.164.86-.328,1.269-.491a.965.965,0,0,1,1.228.491l.041.041a8.636,8.636,0,0,1,.655,1.392,5.241,5.241,0,0,1-2.211,6.468,26.433,26.433,0,0,0-2.415,1.8l-.368.287a6.8,6.8,0,0,0-.573.532,4.076,4.076,0,0,1-.614.573,1.066,1.066,0,0,1-.614.164h-.2l-.368.041.082-.368c0-.082.041-.123.041-.2a2.308,2.308,0,0,1,.164-.491.7.7,0,0,1,.368-.409c.778-.573,1.637-1.228,2.538-1.842.327-.2.614-.45.942-.655a15.585,15.585,0,0,0,1.678-1.187,3.674,3.674,0,0,0,.86-4.38,3.254,3.254,0,0,1-3.152-1.187l-1.76.9a5.341,5.341,0,0,1-2.988.819,19.2,19.2,0,0,1-3.357-.573,6.923,6.923,0,0,0-4.667.2,17.534,17.534,0,0,0-4.626,3.152,6.14,6.14,0,0,0-1.719,4.175,2.442,2.442,0,0,1-.287.737c-.327.491-.655.982-.982,1.433-.614.86-1.228,1.8-1.8,2.7a13.437,13.437,0,0,1-1.269,1.842v15.023a21.644,21.644,0,0,0,13.959,4.912,22.126,22.126,0,1,0-.041-44.251Zm3.111,10.807,1.433,1.433-2.988.942Zm-6.591,11.83a2.248,2.248,0,0,1-.368-.287,7.531,7.531,0,0,1-.9-.7,5.041,5.041,0,0,0-2.743-1.392l-1.883-.123,1.842-.368a3.98,3.98,0,0,1,3.07.86c.246.164.491.327.7.491a16.919,16.919,0,0,0,1.433.9,1.644,1.644,0,0,0,1.637,0,1.23,1.23,0,0,0,.491-1.433,10.649,10.649,0,0,0-.86-2.5c-.614-1.146-1.269-2.292-1.924-3.357-.246-.45-.532-.9-.778-1.31l-.982-1.678,1.351,1.392A27.756,27.756,0,0,1,127,360.4a15.052,15.052,0,0,1,.614,1.924,1.905,1.905,0,0,1-1.31,2.333,2.464,2.464,0,0,1-1.064.2,3.077,3.077,0,0,1-1.515-.45A4.835,4.835,0,0,1,122.78,363.837Zm13.713-4.5c-.409.327-.819.655-1.269.982-1.023.778-2.047,1.6-3.07,2.374a2.423,2.423,0,0,0-1.023,1.8,15.528,15.528,0,0,1-.246,1.556l-.041.123a14.45,14.45,0,0,1-1.76,4.912c-.041.041-.041.164-.041.246,0,.2-.041.368-.041.573a7.31,7.31,0,0,1-.082.942,7.152,7.152,0,0,1-1.146,3.439c-.082.082-.082.287-.123.368a10.03,10.03,0,0,1-2.251,5.526l-.614.614c-.082.082-.2.164-.287.246l-.327-.328a8.583,8.583,0,0,0,2.292-4.871c.041-.2.041-.45.082-.7a3.389,3.389,0,0,1,.7-2.211c0-.041,0-.041.041-.082a10.417,10.417,0,0,0,.491-3.561v-.123a1.38,1.38,0,0,1,.2-.7,6.24,6.24,0,0,1,.45-.655,10.483,10.483,0,0,0,.655-1.023,18.364,18.364,0,0,0,1.146-4.585l.082-.614a1.333,1.333,0,0,1,.491-.86c1.351-1.023,2.743-2.006,4.094-2.988l1.433-1.023.327.491Z" transform="translate(-11.754 -7.324)"/></g></svg>